<svg xmlns="http://www.w3.org/2000/svg" width="220" height="220" viewBox="0 0 220 220" fill="none">
  <defs>
    <linearGradient id="g3" x1="40" y1="40" x2="180" y2="180" gradientUnits="userSpaceOnUse">
      <stop stop-color="#7B3F8F"/>
      <stop offset="1" stop-color="#F0B96B"/>
    </linearGradient>
    <filter id="s3" x="-20%" y="-20%" width="140%" height="140%">
      <feDropShadow dx="0" dy="10" stdDeviation="10" flood-color="#000" flood-opacity="0.12"/>
    </filter>
  </defs>
  <g filter="url(#s3)">
    <path d="M110 36c22 0 24 22 12 34-12 12-10 26 4 36 14 10 34 6 34 18s-20 12-34 10c-14-2-26 6-30 20-4 14 4 36-20 36-24 0-16-22-20-36-4-14-16-22-30-20-14 2-34 2-34-10s20-8 34-18c14-10 16-24 4-36C86 58 88 36 110 36Z" fill="url(#g3)" opacity="0.9"/>
    <circle cx="110" cy="110" r="26" fill="#FFFFFF" opacity="0.85"/>
    <circle cx="110" cy="110" r="12" fill="#7B3F8F" opacity="0.9"/>
  </g>
</svg>
