<svg xmlns="http://www.w3.org/2000/svg" width="220" height="220" viewBox="0 0 220 220" fill="none">
  <defs>
    <radialGradient id="g1" cx="0" cy="0" r="1" gradientUnits="userSpaceOnUse" gradientTransform="translate(110 110) rotate(90) scale(110)">
      <stop offset="0" stop-color="#FFF4D6"/>
      <stop offset="1" stop-color="#F0B96B" stop-opacity="0.9"/>
    </radialGradient>
    <filter id="s" x="-20%" y="-20%" width="140%" height="140%">
      <feDropShadow dx="0" dy="10" stdDeviation="10" flood-color="#000" flood-opacity="0.12"/>
    </filter>
  </defs>
  <g filter="url(#s)">
    <path d="M110 30c18 0 26 20 16 34-10 14-6 30 8 38 14 8 34-1 34 16 0 17-20 22-34 16-14-6-30-2-38 8-8 10-3 34-16 34-13 0-8-24-16-34-8-10-24-14-38-8-14 6-34 1-34-16 0-17 20-8 34-16 14-8 18-24 8-38C84 50 92 30 110 30Z" fill="url(#g1)"/>
    <circle cx="110" cy="110" r="28" fill="#7B3F8F"/>
    <circle cx="110" cy="110" r="14" fill="#FFF4D6"/>
  </g>
</svg>
