<svg xmlns="http://www.w3.org/2000/svg" width="240" height="240" viewBox="0 0 240 240" fill="none">
  <defs>
    <linearGradient id="g2" x1="48" y1="36" x2="192" y2="204" gradientUnits="userSpaceOnUse">
      <stop stop-color="#FFB3C7"/>
      <stop offset="1" stop-color="#7B3F8F" stop-opacity="0.85"/>
    </linearGradient>
    <filter id="s2" x="-20%" y="-20%" width="140%" height="140%">
      <feDropShadow dx="0" dy="10" stdDeviation="10" flood-color="#000" flood-opacity="0.12"/>
    </filter>
  </defs>
  <g filter="url(#s2)">
    <path d="M120 34c14 0 18 16 10 26-8 10-5 22 6 28 11 6 25-2 27 10 2 12-16 12-24 9-8-3-19 1-24 8-5 7 0 26-10 26-10 0-5-19-10-26-5-7-16-11-24-8-8 3-26 3-24-9 2-12 16-4 27-10 11-6 14-18 6-28-8-10-4-26 10-26Z" fill="url(#g2)" opacity="0.95"/>
    <path d="M120 80c10 0 14 12 8 20-6 8-4 16 4 21 8 5 19-1 20 8 1 9-12 9-18 7-6-2-14 1-18 7-4 6 0 20-8 20-8 0-4-14-8-20-4-6-12-9-18-7-6 2-19 2-18-7 1-9 12-3 20-8 8-5 10-13 4-21-6-8-2-20 8-20Z" fill="#FFF4D6" opacity="0.85"/>
    <circle cx="120" cy="120" r="20" fill="#F0B96B"/>
    <circle cx="120" cy="120" r="9" fill="#FFFFFF"/>
  </g>
</svg>
